<svg xmlns="http://www.w3.org/2000/svg" viewBox="0 0 512 512" id="videogame"><linearGradient id="a" x1="65.514" x2="416.675" y1="444.523" y2="93.362" gradientUnits="userSpaceOnUse"><stop offset="0" stop-color="#5ebce5"></stop><stop offset=".549" stop-color="#b678e6"></stop><stop offset="1" stop-color="#e25b61"></stop></linearGradient><path fill="url(#a)" d="M392 248h-72v-24a8 8 0 0 0-8-8h-16v-24a8 8 0 0 0-8-8h-24V80c0-8.822 7.178-16 16-16s16 7.178 16 16v36.504C296 131.665 308.334 144 323.496 144h1.008C339.666 144 352 131.665 352 116.504V88c0-4.411 3.589-8 8-8s8 3.589 8 8c0 13.233 10.767 24 24 24h24a8 8 0 0 0 0-16h-24c-4.411 0-8-3.589-8-8 0-13.233-10.767-24-24-24s-24 10.767-24 24v28.504c0 6.339-5.157 11.496-11.496 11.496h-1.008c-6.339 0-11.496-5.157-11.496-11.496V80c0-17.645-14.355-32-32-32s-32 14.355-32 32v104h-24a8 8 0 0 0-8 8v24h-16a8 8 0 0 0-8 8v24h-25.466l-.449-.719c-5.197-8.319-3.984-18.966 2.956-25.898l6.766-6.775a36.938 36.938 0 0 0 10.75-28.324 36.98 36.98 0 0 0-8.863-21.863c1.967-5.105 1.932-10.969-.609-16.281l-11.167-23.345a24.23 24.23 0 0 0-13.885-12.474l-88.46-31.212a19.268 19.268 0 0 0-14.833.794 19.278 19.278 0 0 0-9.926 11.049l-13.705 38.841c-3.559 10.091 1.754 21.196 11.844 24.758l88.46 31.212a24.379 24.379 0 0 0 8.132 1.402c3.593 0 7.17-.804 10.506-2.4l22.455-10.74a20.97 20.97 0 0 1 4.08 11.224c.366 6.052-1.798 11.751-6.097 16.05l-6.763 6.772c-10.164 10.154-13.356 24.835-8.893 37.93H120c-57.346 0-104 46.654-104 104s46.654 104 104 104c35.448 0 68.608-18.276 87.646-48h96.708c19.038 29.724 52.198 48 87.646 48 57.346 0 104-46.654 104-104S449.346 248 392 248zM42.277 141.463a3.412 3.412 0 0 1-2.08-4.347l13.705-38.84a3.389 3.389 0 0 1 1.743-1.939 3.45 3.45 0 0 1 1.473-.336c.345 0 .726.054 1.13.196l11.876 4.19-15.971 45.265-11.876-4.189zm26.963 9.514 15.971-45.266 15.088 5.324-15.97 45.265-15.089-5.323zm73.424 7.68 9.64 6.423-15.158 7.25a8.326 8.326 0 0 1-6.409.344l-31.32-11.051 15.971-45.266 31.32 11.051a8.338 8.338 0 0 1 4.776 4.29l9.556 19.975-9.503-6.332a7.998 7.998 0 0 0-11.094 2.222 8 8 0 0 0 2.221 11.094zM232 200h48v16h-48v-16zm-24 32h96v16h-96v-16zm184 208c-31.317 0-60.526-16.862-76.229-44.006a8 8 0 0 0-6.925-3.994H203.154a8 8 0 0 0-6.925 3.994C180.526 423.138 151.317 440 120 440c-48.523 0-88-39.477-88-88s39.477-88 88-88h272c48.523 0 88 39.477 88 88s-39.477 88-88 88zM160 328h-16v-16c0-13.233-10.767-24-24-24s-24 10.767-24 24v16H80c-13.233 0-24 10.767-24 24s10.767 24 24 24h16v16c0 13.233 10.767 24 24 24s24-10.767 24-24v-16h16c13.233 0 24-10.767 24-24s-10.767-24-24-24zm0 32h-24a8 8 0 0 0-8 8v24c0 4.411-3.589 8-8 8s-8-3.589-8-8v-24a8 8 0 0 0-8-8H80c-4.411 0-8-3.589-8-8s3.589-8 8-8h24a8 8 0 0 0 8-8v-24c0-4.411 3.589-8 8-8s8 3.589 8 8v24a8 8 0 0 0 8 8h24c4.411 0 8 3.589 8 8s-3.589 8-8 8zm88 8a8 8 0 0 1-8 8h-24a8 8 0 0 1 0-16h24a8 8 0 0 1 8 8zm56 0a8 8 0 0 1-8 8h-24a8 8 0 0 1 0-16h24a8 8 0 0 1 8 8zm82.343-26.343c1.562 1.562 3.609 2.343 5.657 2.343s4.095-.781 5.657-2.343l24-24a7.999 7.999 0 0 0 0-11.314l-24-24a8.001 8.001 0 0 0-11.313 0l-24 24a7.999 7.999 0 0 0 0 11.314l23.999 24zM392 299.313 404.687 312 392 324.687 379.313 312 392 299.313zm5.657 63.03a8.001 8.001 0 0 0-11.313 0l-24 24a7.999 7.999 0 0 0 0 11.314l24 24c1.562 1.562 3.609 2.343 5.657 2.343s4.095-.781 5.657-2.343l24-24a7.999 7.999 0 0 0 0-11.314l-24.001-24zM392 404.687 379.313 392 392 379.313 404.687 392 392 404.687zm-18.343-58.344-24-24a8.001 8.001 0 0 0-11.313 0l-24 24a7.999 7.999 0 0 0 0 11.314l24 24c1.562 1.562 3.609 2.343 5.657 2.343s4.095-.781 5.657-2.343l24-24a8.002 8.002 0 0 0-.001-11.314zM344 364.687 331.313 352 344 339.313 356.687 352 344 364.687zm125.657-18.344-24-24a8.001 8.001 0 0 0-11.313 0l-24 24a7.999 7.999 0 0 0 0 11.314l24 24c1.562 1.562 3.609 2.343 5.657 2.343s4.095-.781 5.657-2.343l24-24a8.002 8.002 0 0 0-.001-11.314zM440 364.687 427.313 352 440 339.313 452.687 352 440 364.687zM288 280h-64c-13.234 0-24 10.767-24 24s10.766 24 24 24h64c13.234 0 24-10.767 24-24s-10.766-24-24-24zm-72 24c0-4.411 3.589-8 8-8h24v16h-24c-4.411 0-8-3.589-8-8zm72 8h-24v-16h24c4.411 0 8 3.589 8 8s-3.589 8-8 8z"></path></svg>