<svg xmlns="http://www.w3.org/2000/svg" data-name="Artboard 30" viewBox="0 0 64 64" id="yoyo"><rect width="7" height="7" x="52" y="6" fill="#00ade0" rx="3.5"></rect><path fill="#75cee0" d="M28.5,29h-1a14.5,14.5,0,0,0,0,29h1a14.5,14.5,0,0,0,0-29ZM28,53a9,9,0,1,1,9-9A9,9,0,0,1,28,53Z"></path><path fill="#00ade0" d="M28.5,25h-1A18.5,18.5,0,0,0,9,43.5H9A18.5,18.5,0,0,0,27.5,62h1A18.5,18.5,0,0,0,47,43.5h0A18.5,18.5,0,0,0,28.5,25Zm0,33h-1a14.5,14.5,0,0,1,0-29h1a14.5,14.5,0,0,1,0,29Z"></path><circle cx="28" cy="44" r="9" fill="#00ade0"></circle><circle cx="28" cy="44" r="4" fill="#8adce2"></circle><path fill="#05a0c4" d="M20.972 38.386l3.594 3.594a3.991 3.991 0 011.414-1.414l-3.594-3.594A9.09 9.09 0 0020.972 38.386zM33.614 36.972L30.02 40.566a3.991 3.991 0 011.414 1.414l3.594-3.594A9.09 9.09 0 0033.614 36.972zM35.028 49.614L31.434 46.02a3.991 3.991 0 01-1.414 1.414l3.594 3.594A9.09 9.09 0 0035.028 49.614zM24.566 46.02l-3.595 3.593a9.09 9.09 0 001.414 1.414l3.595-3.593A3.983 3.983 0 0124.566 46.02z"></path><path fill="#bcc3ce" d="M52.838,11.748l-7.319,7.319a3.184,3.184,0,0,1-5.341-1.479l-.083-.33A3.2,3.2,0,0,1,40,16.485V7.5a6.5,6.5,0,0,0-13,0V25h2V7.5a4.5,4.5,0,0,1,9,0v8.985a5.19,5.19,0,0,0,.155,1.258l.082.33a5.184,5.184,0,0,0,8.7,2.408l7.625-7.625A3.48,3.48,0,0,1,52.838,11.748Z"></path><rect width="2" height="4" x="27" y="21" opacity=".05"></rect><path d="M38.164,27.747a18.381,18.381,0,0,1,1.153,6.121A14.482,14.482,0,0,1,28.5,58h-1a14.467,14.467,0,0,1-11.777-6.064,18.389,18.389,0,0,1-5.884-2.914A18.507,18.507,0,0,0,27.5,62h1A18.5,18.5,0,0,0,47,43.5h0A18.469,18.469,0,0,0,38.164,27.747Z" opacity=".05"></path></svg>